<svg fill="none" height="300" viewBox="0 0 300 300" width="300" xmlns="http://www.w3.org/2000/svg"><path d="m34.5835 179.831c-.1815-2.868-5.1253-3.743-6.4334-.391-1.1358 2.909-6.0144 3.594-8.6074 4.12-4.0406.814-8.328 1.331-12.34542.158-1.32672-.386-2.89086-1.243-3.78931.396-1.79224 3.286 2.75118 7.057 5.27893 8.281 4.5853 2.221 9.585 2.156 14.58 1.709 6.7686-.61 11.9079-4.614 12.4991-11.666.107-1.248-.4097-2.109-1.1871-2.602z" fill="#758c27"/><path d="m205.027 224.949c-1.387-2.9-8.072-5.209-20.059-6.918-6.922-.982-26.549-1.671-45.416-2.062-13.775-.289-40.4626-.419-48.1855-.391-18.2994.06-35.058 1.066-50.2757 3.012-15.2177 1.95-19.9799 4.138-19.2211 6.568.7541 2.435 3.8451 4.432 14.2122 5.991 10.367 1.56 28.2847 2.603 53.7624 3.129 10.2417.214 38.2097.232 52.7337.051 21.609-.27 42.948-.982 49.098-2.137 10.297-1.927 14.747-4.343 13.351-7.243z" fill="#000" fill-opacity=".15"/><path d="m155.324 215.028c-.307-.223-.656-.381-.991-.456.004-.056.009-.116 0-.181-.233-1.509 1.327-3.971 2.979-6.574 2.137-3.365 4.343-6.847 3.464-9.342-.378-1.071-1.318-1.872-2.798-2.37-.778-.265-1.643-.419-2.575-.465-6.284-.294-14.845 2.914-18.304 8.793-.749 1.271-1.596 2.519-2.416 3.72-1.778 2.607-3.617 5.307-4.585 8.495l-.037.126c-.671 2.216-1.592 5.246.782 6.731 1.462.917 3.366 1.239 5.232 1.406.578.051 1.145.089 1.699.131.517.032 1.02.069 1.49.111 1.438.131 2.612.196 3.673.205 1.429.154 2.854.186 4.245.107 1.16-.065 2.803.117 3.874-.363.446-.2 1.215-.759 1.331-1.28.056-.251-.163-1.527-.652-1.322 1.09-.461 2.467-1.117 2.588-2.463.028-.321-.023-.619-.153-.884l.358-.07c.801-.168 1.364-.493 1.723-.996.512-.717.507-1.662-.01-2.351-.223-.298-.526-.526-.926-.708z" fill="#758c27"/><path d="m211.135 170.219c-.074.047-.149.094-.223.14-1.83 1.108-4.227 1.466-6.387 1.397-3.831-.126-4.986-.666-8.859-2.3-2.625-1.103-5.861-.372-8.472.396-3.11.912-5.68 2.229-7.598 4.957-.856 1.215-1.54 2.328-1.922 3.776-.368 1.392-.41 2.053-.256 3.496.521 4.836 6.531 7.886 10.488 9.245 4.46 1.531 8.984 3.263 13.584 4.362 1.736-8.189 3.626-16.144 8.011-22.973.512-.848 1.062-1.676 1.639-2.496z" fill="#758c27"/><path d="m297.716 165.16c-.149-7.337-1.397-15.479-5.787-21.549-3.663-5.065-9.515-8.998-15.432-10.711-6.149-1.783-13.509-1.853-19.738-.21-5.265 1.387-9.645 4.734-13.76 8.081-2.225 1.811-3.748 4.223-5.763 6.234-3.226 3.212-6.303 6.596-9.66 9.678 1.304-.554 2.644-1.043 4.041-1.443-1.392.4-2.737.889-4.041 1.443-.866.796-1.75 1.582-2.662 2.332-4.465 3.664-8.766 8.119-13.784 11.21-.578.819-1.127 1.647-1.639 2.495-4.385 6.829-6.27 14.78-8.012 22.973.503.121 1.006.237 1.513.34 21.167 4.334 36.497 4.427 56.57 2.202 6.717-.745 13.965-3.603 20.352-6.862-4.874-1.052-9.58-2.914-13.84-5.442-3.77-2.244-7.946-5.209-10.031-9.129 1.322 2.481 6.452 2.784 8.826 2.7 6.526-.223 11.735-3.985 16.693-7.62 2.998-2.197 6.229-4.395 9.823-5.563 1.41-.456 3.049-.866 4.552-.656.848.121 1.402.46 1.769.945.014-.475.019-.955.01-1.444z" fill="#82a231"/><path d="m278.588 179.019c-3.128 0-6.233.665-9.185 1.685-2.183.754-4.254 1.987-6.149 3.431.94.642 1.895 1.238 2.821 1.792 4.259 2.532 8.966 4.394 13.84 5.442 4.008-2.049 7.671-4.586 10.613-7.691-2.071-4.082-7.541-4.655-11.945-4.659z" fill="#f4aa9b"/><path d="m295.938 165.658c-1.499-.21-3.143.2-4.553.656-3.594 1.169-6.825 3.366-9.822 5.563-4.963 3.636-10.172 7.402-16.694 7.621-2.374.079-7.504-.224-8.826-2.7 1.573 2.951 4.329 5.367 7.211 7.336 1.894-1.443 3.966-2.677 6.149-3.431 2.952-1.019 6.057-1.685 9.185-1.685 4.404.005 9.873.577 11.945 4.66 4.218-4.446 6.969-10.06 7.174-17.08-.368-.479-.922-.824-1.769-.945z" fill="#57701a"/><path d="m260.712 175.9c4.576.372 8.594-.912 12.062-3.85 3.468-2.956 5.386-6.699 5.758-11.223.372-4.548-.922-8.557-3.868-12.02-2.952-3.454-6.713-5.372-11.284-5.74-4.544-.368-8.552.917-12.02 3.85-3.491 2.942-5.419 6.69-5.786 11.238-.368 4.529.931 8.528 3.901 12.005 2.951 3.454 6.694 5.368 11.237 5.74z" fill="#fff"/><path d="m266.472 169.228c2.23.181 4.199-.442 5.898-1.876 1.713-1.453 2.658-3.287 2.84-5.512.181-2.206-.461-4.152-1.918-5.851-1.443-1.718-3.282-2.663-5.517-2.845-2.234-.181-4.185.461-5.888 1.923-1.713 1.438-2.658 3.263-2.835 5.465-.182 2.225.456 4.19 1.913 5.893 1.448 1.686 3.282 2.621 5.502 2.798z" fill="#2f3032"/><path d="m245.244 147.703c2.556.037 5.096.041 7.715-.102 2.603-.147 35.11 2.83 37.119 3.18.663.116 5.304.383 5.87-.041.765-.572.368-2.291.266-3.056-.643-4.737-2.845-8.259-8.169-8.604-.958-.06-2.42-.185-4.375-.36-12.263-1.032-8.416-1.175-14.446-1.447-10.211-.396-17.887-.507-26.003-.746-.822-.019-1.447 0-1.882.05-.702.092-1.283.295-1.762.613-1.781 1.189-6.262 8.789-3.712 10.195 1.123.622 3.127.226 4.385.239 1.684.019 3.344.056 4.994.079z" fill="#4e87e2"/><path d="m215.501 172.537c-.238.237-.433.484-.573.731-3.109 5.516 5.954 4.538 8.431 3.342 1.62-.782 8.714-4.362 6.2-7.132-2.108-2.318-5.274-1.559-7.792-.437-1.597.707-4.767 1.992-6.266 3.491z" fill="#aab338"/><path d="m210.941 178.016c.279-1.737-1.057-2.952-2.588-3.394-.945 1.681-1.76 3.426-2.477 5.214 2.072.582 4.711.382 5.065-1.82z" fill="#aab338"/><path d="m206.41 174.488c-1.117.195-3.021 1.885-3.04 3.291-.004.409.149.791.531 1.108.465.391 1.178.726 1.974.949.717-1.792 1.531-3.533 2.476-5.213-.647-.187-1.326-.242-1.941-.135z" fill="#9aa836"/><path d="m229.048 165.419c1.602 1.671 4.772 1.191 6.457-.038 1.764-1.284 3.566-5.232 1.974-7.318-1.578-2.062-5.368-.479-6.871.731-1.485 1.197-3.105 4.358-1.923 6.173.107.168.228.317.359.452z" fill="#aab338"/><path d="m89.626 220.396c.0325-.028.0651-.056.0977-.084.945-.819 1.0893-1.797.4143-2.816-.2141-.321-.4794-.61-.796-.852l.135-.056c.6843-.298.9962-.763.9357-1.396-.0792-.782-.7681-1.718-1.7178-2.333-.4189-.27-.8705-.465-1.3313-.581-.5121-.224-1.0148-.354-1.4105-.368-.014-.023-.028-.047-.0419-.065-.0513-.084-.1025-.163-.1676-.238-2.0623-2.285-2.4486-4.148-2.8583-6.121-.3957-1.904-.8007-3.873-2.8257-6.164-.2746-.312-.54-.624-.8053-.935-1.4385-1.695-2.7931-3.296-5.1486-4.12-1.0474-.368-2.0622-.559-3.0212-.568-1.6386-.014-7.1364.205-8.9007 3.701-1.2941 2.565-.7448 5.721-.256 8.505.0745.433.149.856.2141 1.266.5959 3.766 1.1638 6.894 2.579 9.976l.0652.139c1.0799 2.356 2.5556 5.582 5.8142 6.802 2.4533.917 5.4047 1.177 8.2723 1.108 3.3005-.08 6.4846-.592 8.6539-1.029.6936-.14 1.3593-.321 1.9785-.536.4934-.172 1.4058-.488 1.2894-1.494-.0745-.656-.6098-1.294-1.1684-1.746z" fill="#758c27"/><path d="m183.286 186.402c.806-.982 1.821-1.853 2.956-2.649-6.442-1.21-14.323-.032-19.672 1.83-2.602.907-6.434 2.593-9.38 4.613-3.818 2.616-5.363 5.162-4.59 7.574 1.326 4.152 6.554 3.724 10.371 3.412.647-.051 1.257-.102 1.783-.126 3.994-.158 7.407.224 10.605 1.797 2.057-6 5.079-13.416 7.918-16.451z" fill="#82a231"/><path d="m210.808 215.32c-.261-.307-.615-.563-1.048-.759.461-.619.945-1.457.871-2.341-.075-.899-.642-1.513-1.694-1.834.325-.545.633-1.285.73-1.783.131-.657-.27-1.08-.633-1.374-.484-.395-1.429-.218-2.43-.037-.633.117-1.699.312-1.778.051-.517-1.741-2.868-8.998-4.152-11.302-2.933-5.261-5.47-9.804-12.56-11.773-.605-.168-1.234-.303-1.871-.424-1.136.801-2.156 1.667-2.956 2.649-2.84 3.035-5.861 10.451-7.919 16.451.782.387 1.555.838 2.318 1.374.401.279.783.535 1.16.782 1.21.8 2.309 2.029 3.314 3.258 1.643 2.007 2.621 4.641 3.566 7.188.447 1.201.908 2.439 1.424 3.57 1.741 3.804 4.339 4.609 8.529 4.762 1.033.038 2.49.038 4.138-.13 2.127-.214 4.581-.698 6.862-1.727 1.28-.442 2.514-1.327 3.463-2.49 1.359-1.662 1.583-3.054.671-4.13z" fill="#89af34"/><path d="m181.457 192.565c.862.4 1.858.428 2.789.326.88-.098 1.773-.275 2.527-.759.764-.489 1.178-1.285 1.169-2.179-.005-.661-.317-1.271-.81-1.652-.084-.117-.177-.228-.289-.326-.619-.545-1.541-.731-2.337-.829-.609-.074-1.224-.079-1.834-.018-.87 1.108-1.75 2.579-2.607 4.254.34.512.843.927 1.392 1.183z" fill="#b7ba42"/><path d="m181.876 187.245c-.056.014-.112.027-.168.046-.442.033-.88.163-1.308.433-1.233.777-1.443 2.565-.437 3.519.027.052.069.093.097.145.857-1.676 1.737-3.152 2.607-4.255-.265.028-.53.06-.791.116z" fill="#aab338"/><path d="m194.362 193.031c-.228-.736-.643-1.439-1.183-1.983-.298-.298-.675-.54-1.075-.671-.559-.181-1.094-.204-1.662-.032-.228.065-.447.302-.54.512-.074.163-.102.372-.079.563-.033.177-.014.34.037.531.196.707.535 1.392.978 1.978.465.624 1.084 1.243 1.899 1.341.54.065 1.122-.112 1.443-.573.363-.512.359-1.084.177-1.666z" fill="#b7ba42"/><path d="m56.9065 205.656c2.5045-4.082 2.835-9.91 1.5967-14.645-.5446-2.085-1.5315-3.407-2.8489-4.757-2.5417-2.607-8.2396-4.167-12.4386-3.399-2.7046.494-4.6133 1.853-5.521 3.934-.7774 1.778-.1676 3.701-.0046 5.596 8.0115 1.769 15.4783 6.265 19.2211 13.271z" fill="#82a231"/><path d="m37.6894 192.385c.0605.735.0558 1.461-.1257 2.174-.7076 2.779-5.3209 3.961-7.6717 5.023-1.7178.772-3.4961 1.578-5.3116 2.574-2.5743 1.415-6.0982 3.696-6.9361 7.155-.8519 3.519 1.2987 7.541 3.6589 9.79 1.8853 1.792 5.7398 5.013 10.381 6.456.6983.289 1.4664.471 2.2671.55.7727.074 1.5781.046 2.3787-.084 1.0009-.163 3.0538-.517 3.6404-1.42.4143-.638-.0885-2.109-.4376-2.863.8333-.172 1.8481-.503 2.4347-1.289.5912-.792.5632-1.709-.0792-2.738.6657-.209 1.471-.6 1.9179-.94.5726-.437.5493-1.066.4655-1.559-.0837-.494-.5213-1.011-1.4058-1.63.3631-.121.7262-.237 1.0893-.353 3.4541-1.118 6.722-2.17 9.8643-4.283 1.2708-.852 2.2903-1.983 3.091-3.291-3.7381-7.006-11.2096-11.503-19.2211-13.272z" fill="#89af34"/><path d="m33.8437 202.761c-.7309-.954-2.0529-1.382-3.3471-1.121-.8844.176-2.0064.502-2.6627 1.196-.5912.186-1.1359.479-1.5176 1.01-.7541 1.043-.54 2.621.7308 3.142.5633.233 1.2197.219 1.8202.247.6564.028 1.3174.028 1.9692-.056.9729-.121 1.876-.535 2.7186-1.005.7495-.424.8658-.629.8751-1.597.0047-.726-.2141-1.336-.5818-1.816z" fill="#b7ba42"/><path d="m40.2228 200.075c.0186-.093.0326-.191.0326-.289.107-.353-.0047-.768-.2747-1.019-.0651-.112-.1536-.214-.2653-.289-.2048-.135-.4981-.246-.7495-.172-.0139.005-.0279.009-.0465.014-.3911.019-.7588.214-1.0614.484-.0605.037-.121.075-.1769.117-.3305.232-.6238.53-.8705.851-.4935.638-.8054 1.462-.8287 2.272-.0279 1.085 1.1173 1.467 2.0437 1.383 1.0474-.098 1.8294-.982 2.0529-1.988.0884-.382.0605-.777.0838-1.164.0186-.065.0372-.13.0512-.2z" fill="#b7ba42"/><path d="m39.4452 192.855c-.0512.317-.0931.633-.0884.954 0 .326.0466.652.1024.973.0047.028.0186.056.028.084.0279.489.1769.959.526 1.35.4702.521 1.1731.68 1.8434.549.5773-.111 1.0847-.535 1.4012-1.014.2933-.443.3864-.964.3724-1.49-1.3546-.563-2.7558-1.043-4.1803-1.434 0 .009 0 .019-.0047.028z" fill="#b7ba42"/><path d="m42.368 191.3c-.54-.368-1.336-.438-1.9133-.112-.6098.349-.8938.973-1.0055 1.643 1.4245.391 2.821.866 4.1803 1.434-.0139-.517-.1349-1.038-.2746-1.503-.1769-.592-.4748-1.104-.9915-1.457z" fill="#aab338"/><path d="m21.791 165.018c3.3517-17.439 12.4945-34.435 20.8318-46.059 8.3374-11.623 25.8315-28.5078 41.4542-32.4926 13.4208-3.4215 27.605-6.1075 41.45-3.8684 9.105 1.471 18.304 3.6729 26.292 8.4538 13.295 7.9556 22.694 20.6412 29.676 34.2342 1.732 3.375 18.03 37.609 15.311 39.294-10.097 6.275-18.904 12.629-18.904 12.629l-21.256 20.204-24.23 6.159-42.3571 1.219-29.1925-10.078-10.3158-12.55-16.6934.158-11.8474-9.934-.2141-7.379z" fill="#54392b"/><path d="m37.6417 176.441c-3.6962-1.061-6.5731-4.79-9.6315-7.28-2.9514-2.407-5.6141-5.042-9.3755-1.862-1.9226 1.624-1.8481 3.356-1.5409 5.67.4469 3.37 2.7047 5.683 5.3675 7.56 1.9784 1.391 3.7101 3.114 5.7211 4.464 1.6852 1.131 4.185 3.044 6.2147 3.319 2.9095.391 6.345-.484 9.2544-.698 2.6768-.196 5.1114.828 6.9781 2.728 1.9319 1.964 2.6302 4.664 4.6971 6.466 2.551 2.225 5.8562 3.556 8.9798 4.762 5.0136 1.936 10.1389 4.096 15.3154 5.474 7.2481 1.932 15.6786 4.013 23.1451 4.66 10.195.88 21.8.815 32.815-1.373 5.581-1.108 11.381-2.332 16.698-4.004 4.022-1.261 7.178-2.583 10.772-5.032 7.723-5.26 11.749-13.593 19.798-18.769 1.89-1.215 6.098-4.013 8.105-4.865 3.309-1.406 6.605-3.161 10.045-4.222 2.165-.666 1.504-6.373.736-8.054-2.989-6.54-11.284-1.14-15.278 1.043-6.355 3.477-11.987 7.183-17.611 11.792-1.824 1.494-3.538 3.51-5.283 5.232-3.696 3.64-7.3 8.998-11.708 11.75-2.472 1.54-10.023 4.017-15.432 4.794-8.021 1.15-14.361 2.295-21.893 2.496-3.133.083-6.182-.191-9.315-.215-4.562-.032-9.2312-.879-13.7327-1.466-2.6209-.34-5.1812-1.308-7.8347-1.764-3.3982-.587-6.7267-1.546-9.9713-2.71-2.8583-1.028-5.4698-1.806-8.1372-3.356-.7449-.433-1.7923-.908-2.3835-1.527-4.7529-4.962-8.2768-15.269-16.2139-15.488-2.5603-.069-8.1744.81-9.3149.485z" fill="#a07043"/><g fill="#724b2e"><path d="m101.04 130.798c2.374 2.239 3.691 4.31 3.766 8.411.088 5.009.223 11.308-1.811 16.005-1.35 3.114-5.982 6.233-9.3151 5.945-3.9522-.34-15.7763-4.469-17.9084-5.019-2.0203-.521-3.1562-2.732-3.8917-4.492-.7867-1.867-2.2671-4.106-2.1274-6.201.121-1.834 1.2895-3.896 1.9971-5.567 1.7131-4.055 3.9243-7.979 7.3924-10.791 4.6225-3.752 9.5942-3.971 15.0082-2.309 2.3741.731 4.8972 2.132 6.8899 4.013z"/><path d="m102.594 98.9513c-.987 1.4197-5.6281 9.8827-6.6802 12.8067-1.4338 3.984-1.5967 9.654 2.4626 12.41 1.6386 1.113 4.6316 1.099 6.5636 1.271 4.395.396 8.859.503 13.258.251 3.496-.2 7.867-.428 10.465-3.118 3.161-3.273.977-8.068-.2-11.666-1.332-4.069-2.049-7.793-4.804-11.3356-1.313-1.6852-4.344-2.4207-6.359-2.7884-2.347-.4283-4.749-.6424-7.137-.5074-1.871.107-4.52-.0373-6.103 1.1032-.549.3957-1.033.945-1.466 1.5688z"/><path d="m112.474 132.091c-1.248 1.606-1.383 3.933-1.928 5.944-.823 3.045-1.61 6.117-2.011 9.241-.689 5.405-.144 12.155 6.69 13.56.708.145 1.434.219 2.155.252 5.572.256 11.587.405 17.113-.14 3.207-.316 4.171-.158 6.321-2.09 2.067-1.862 4.022-4.376 3.897-7.155-.117-2.574-1.425-4.981-2.128-7.434-.824-2.868-2.63-6.559-3.985-10.158-2.402-6.396-9.142-6.717-16.488-5.595-2.672.409-5.298 1.126-7.765 2.164-.815.345-1.415.829-1.867 1.411z"/><path d="m183.953 145.014c-1.057 1.853-3.189 3.147-5.032 3.734-4.837 1.536-9.72 2.77-14.603 4.115-2.342.647-5.945 2.141-8.552 1.518-1.815-.433-3.934-2.905-4.841-4.134-1.462-1.979-2.877-6.415-3.664-9.422-.815-3.11-1.75-6.168-2.048-9.325-.219-2.341.065-5.106 2.02-7.029 4.451-4.38 12.807-7.136 19.314-6.666 2.263.163 3.897 1.797 5.21 3.128 3.733 3.799 7.387 8.156 9.99 12.951 1.41 2.602 2.662 5.316 2.867 8.365.07 1.024-.191 1.951-.656 2.77z"/><path d="m66.8897 120.347c-1.0102-1.275-2.1507-2.272-3.3564-2.788-2.6814-1.15-5.3627-3.198-8.4258-3.119-2.1926.056-4.5248 2.509-6.1448 3.756-1.6945 1.309-3.3052 2.766-4.6459 4.437-1.9924 2.476-4.3386 5.144-5.7491 8.007-1.0707 2.174-2.5278 6.149-1.0521 8.407 2.3043 3.528 7.7462 5.768 11.6705 6.657 1.3733.312 2.6255.549 3.9569.991 2.0995.699 3.8033 1.378 6.0517 1.369 3.8498-.014 7.2946-5.987 8.7424-8.822 1.0148-1.992 2.0576-4.189 2.6162-6.363.8705-3.408-.8845-9.022-3.659-12.532z"/><path d="m119.2 188.024c.359-3.51.061-7.123-.712-10.539-.624-2.766-1.89-7.639-4.083-9.562-2.09-1.834-6.759-2.332-9.692-2.733-3.919-.53-8.0206-.996-11.9915-.367-5.4791.865-7.9277 5.781-9.4034 9.426-1.0055 2.481-1.9365 4.986-2.8024 7.514-1.0753 3.147-1.066 6.545 1.1079 9.259 2.4067 2.998 4.7623 4.697 8.6307 5.037 5.3534.465 10.7117.987 16.0927 1.028 2.602.019 7.304.671 9.562-.572 1.806-.996 2.625-4.422 2.975-6.271.139-.73.246-1.475.321-2.22z"/><path d="m149.481 190.081c-2.174 1.188-4.623 1.807-7.225 2.579-3.943 1.174-8.426 2.984-12.289.68-2.975-1.774-4.171-5.628-4.972-8.78-1.089-4.282-3.18-12.489-.144-16.195 1.922-2.346 6.279-2.579 9.096-3.054 1.894-.321 3.803-.949 5.693-1.201 2.421-.321 4.641-.833 6.987-1.257 3.617-.651 6.215 2.863 7.914 5.526 1.918 3.007 5.074 8.505 2.891 12.057-1.234 2.006-2.444 4.18-3.822 6.052-1.206 1.643-2.598 2.756-4.124 3.589z"/><path d="m63.5429 183.368c-.1397-.074-.2793-.153-.4097-.242-2.9793-1.927-4.1757-6.005-7.2248-8.063-2.9979-2.025-8.1139-1.238-8.9938-5.753-.6331-3.245 1.499-7.044 2.7978-9.823 3.0258-6.47 9.18-7.611 15.497-5.344 1.5642.559 3.3471 1.08 4.7483 1.955 5.0089 3.133 10.0598 7.3 9.4267 13.565-.3818 3.771-1.2383 9.692-4.4364 12.267-2.7279 2.197-8.1651 3.161-11.4051 1.433z"/><path d="m102.399 88.9947c2.039 1.5828 6.792 1.8574 9.413 1.8109 2.365-.0419 4.408.2095 6.647.2374 3.059.0372 4.437.2467 7.025-1.3919 3.003-1.8993 5.316-3.1515 6.243-5.9074-2.063-.4329-4.139-.8053-6.206-1.1405-8.118-1.3128-16.353-.931-24.481.2979-.754 2.2717-1.1685 4.1385 1.355 6.0983z"/><path d="m130.211 102.144c.903 4.162 3.617 7.062 6.149 10.372 3.631 4.743 7.644 7.038 12.783 5.274 5.698-1.955 10.638-3.184 15.609-6.657 2.016-1.406 3.52-2.798 4.618-4.641-4.962-6.043-10.744-11.3587-17.554-15.4366-3.832-2.2904-7.942-3.9895-12.188-5.2976-.689.3119-1.364.6703-2.029 1.094-5.745 3.6543-8.733 9.0961-7.388 15.2922z"/><path d="m60.1267 102.708c.5027 3.036 3.4634 6.625 5.8283 8.459 2.7279 2.118 5.912 3.589 9.0356 5.032 12.0475 5.568 19.6308-13.37 22.4937-21.5533.9683-2.7652.0699-6.5033-1.1219-9.1846-.2979-.6657-.661-1.1638-1.0846-1.5549-3.7753.7402-7.5134 1.6247-11.1957 2.5604-8.0255 2.0483-16.5444 7.4994-24.0625 13.8914-.0232.963.0233 1.824.1117 2.346z"/><path d="m23.6765 161.963c5.1626 4.181 12.3874 10.456 18.4763 3.398 2.4393-2.83 3.631-10.32 2.5324-13.853-.7169-2.309-4.0267-5.042-5.7258-6.634-2.0297-1.899-5.7026-3.836-8.924-4.432-3.0491 6.508-5.6606 13.491-7.3831 20.613.3212.308.6611.606 1.0242.904z"/><path d="m165.984 173.328c-1.275-.205-2.472-.661-3.403-1.327-2.644-1.895-5.665-5.679-5.688-9.101-.014-2.3 2.56-3.305 4.375-3.901 1.364-.447 2.538-1.182 3.902-1.592 1.596-.48 6.116-2.314 7.76-1.392 1.792 1.01 2.001 7.085 2.104 8.952.112 2.071-.438 4.595-1.82 6.229-1.639 1.936-4.595 2.555-7.225 2.127z"/><path d="m189.209 149.631c-1.033-.41-2.262-.265-3.277-.07-5.763 1.127-10.856 4.772-7.569 10.968 3.226 6.079 7.141 3.393 11.4.474 1.802-1.238 2.812-1.787 2.16-4.408-.456-1.834-.447-4.995-1.727-6.308-.293-.302-.633-.512-.991-.656z"/></g></svg>