<svg fill="none" height="300" viewBox="0 0 300 300" width="300" xmlns="http://www.w3.org/2000/svg"><g fill="#68848e"><path d="m244.583 204.008c-2.125-1.21-4.335-1.511-6.643-.888-2.298.66-4.023 2.016-5.167 4.074-1.122 2.02-1.352 4.163-.69 6.428.639 2.253 1.982 3.969 4.013 5.132 2.007 1.146 4.162 1.44 6.449.859 2.282-.58 4.025-1.864 5.218-3.841 1.209-2.028 1.502-4.201.892-6.524-.646-2.312-2.003-4.065-4.072-5.25z"/><path d="m241.42 210.638c-2.554-1.463-5.24-1.817-8.039-1.062-2.765.803-4.846 2.446-6.242 4.928-1.348 2.439-1.628 5.025-.835 7.754.779 2.734 2.393 4.798 4.849 6.209 2.436 1.394 5.034 1.738 7.808 1.035 2.765-.693 4.864-2.24 6.296-4.632 1.468-2.444 1.829-5.07 1.088-7.875-.778-2.803-2.422-4.925-4.929-6.357z"/><path d="m232.022 219.07c1.874-.475 3.285-1.533 4.24-3.183.939-1.681 1.143-3.465.616-5.354-.559-1.888-1.701-3.329-3.426-4.317-1.738-.992-3.532-1.236-5.386-.725-1.876.513-3.263 1.62-4.174 3.319-.907 1.675-1.08 3.447-.508 5.317.548 1.843 1.661 3.247 3.362 4.223 1.687.961 3.449 1.203 5.281.729h-.004z"/><path d="m247.674 227.199c1.873-.476 3.285-1.534 4.239-3.183.939-1.682 1.143-3.465.616-5.354-.559-1.889-1.701-3.329-3.425-4.317-1.739-.996-3.533-1.237-5.387-.725-1.876.512-3.263 1.62-4.174 3.318-.907 1.676-1.079 3.448-.507 5.318.548 1.842 1.661 3.247 3.362 4.222 1.687.962 3.448 1.204 5.281.73h-.005z"/><path d="m242.899 211.695c-2.098-1.206-4.387-1.328-6.871-.39-2.458.979-4.388 2.707-5.79 5.185-1.362 2.435-1.802 4.927-1.32 7.476.454 2.55 1.691 4.4 3.713 5.559 1.994 1.146 4.219 1.272 6.668.381 2.449-.869 4.388-2.51 5.811-4.911 1.453-2.452 1.965-4.993 1.54-7.618-.448-2.615-1.697-4.51-3.756-5.686z"/><path d="m245.629 204.606c-1.781-1.023-3.708-1.147-5.785-.391-2.072.787-3.675 2.212-4.827 4.27-1.123 2.02-1.475 4.095-1.053 6.223.408 2.12 1.472 3.67 3.174 4.654 1.687.962 3.558 1.093 5.624.384 2.047-.718 3.662-2.069 4.855-4.046 1.196-2.033 1.606-4.142 1.218-6.332-.406-2.18-1.476-3.761-3.214-4.757l.004-.001z"/><path d="m238.221 212.37c-.547-1.608-1.603-2.864-3.153-3.744-1.565-.894-3.148-1.157-4.778-.788-1.621.364-2.806 1.246-3.55 2.639-.732 1.374-.82 2.853-.256 4.442.545 1.553 1.585 2.768 3.112 3.641 1.513.863 3.059 1.128 4.659.802 1.631-.332 2.836-1.174 3.605-2.527.769-1.384.884-2.874.356-4.469z"/></g><path d="m108.354 231.181c-2.971 3.017-6.319 5.69-10.0528 8.018-3.1826 1.989-6.6316 3.959-10.2872 4.795-.9828.225-2.0207.39-3.0218.519-2.1126.275-4.2572.367-6.3836.243-1.8599-.106-3.7153-.753-5.5477-.445-1.8416.303-2.9254 1.552-3.2652 5.01-.349 3.453-.6613 7.83-.9553 13.121-.2801 5.263.418 8.62 2.0942 10.062.3904.34.8404.643 1.3364.895 1.5615.813 3.5454 1.148 5.9565 1.029 3.2101-.142 6.6682-2.342 7.7521-5.943.4087-1.359.3123-5.175.0321-7.219.0965-.014.1975-.028.2939-.041.2342-.01.4639-.051.6981-.101.5603-.088 1.1343-.193 1.7176-.308h.101c0-.009 0-.014 0-.018 2.3192-.46 4.8451-1.107 7.573-1.961 3.9357-1.236 7.3207-2.581 10.1537-4.023 2.985-1.544 5.81-3.44 8.473-5.691 2.324-1.947 4.698-4.321 7.128-7.113l-13.791-10.82z" fill="#617b85"/><path d="m232.998 228.826c-20.039 3.286-38.221 1.404-54.51-5.303.331-5.245.658-10.494.989-15.74 17.46 4.74 35.678 5.862 54.632 3.215 3.271 5.533 2.901 11.478-1.116 17.833z" fill="#68848e"/><path d="m94.4099 224.693c.2388-2.361.1699-4.579-.2112-6.646-.4363-2.314-1.24-4.326-2.4065-6.039-1.3089-1.887-3.0173-3.288-5.1252-4.197-1.3915-.597-2.7509-.873-4.0781-.845-.4133-.395-.8956-.735-1.4421-1.02-1.0057-.528-2.1125-.826-3.3111-.895-1.0563-.074-2.2044.027-3.449.284-.8726.184-1.9793.506-3.3158.965-1.1435.39-2.0298.73-2.6636 1.033-.9368.441-1.7451.928-2.3927 1.461-.7623.633-1.3593 1.354-1.791 2.172-.4731.895-.6935 1.795-.6522 2.7.046.868.3215 1.759.8496 2.668-1.2675.666-2.434 1.507-3.4902 2.522-1.4099 1.373-2.1861 2.751-2.3192 4.119-.1608 1.373.2939 2.742 1.3639 4.106.7394.978 1.8875 2.053 3.4352 3.228-.6981.671-.9552 1.598-.7853 2.77.1469.987.5557 1.979 1.2308 2.975 1.1756 1.736 2.6406 3.16 4.3812 4.281 1.8278 1.18 3.7475 1.86 5.759 2.043 2.0941.17 4.0964-.261 5.9885-1.29.9828-.519 1.8233-1.148 2.5121-1.878.7945.036 1.5936-.074 2.3927-.345 1.3548-.422 2.806-1.332 4.3583-2.732.7899-.676 1.4099-1.328 1.8507-1.957.4179-.675.7027-1.423.8359-2.236.0367-.221.0551-.437.0643-.648 1.3088-1.474 2.1079-3.678 2.3972-6.595h.0138z" fill="#617b85"/><path d="m120.716 198.245c3.504 3.118 7.44 5.924 11.803 8.418 5.548 3.178 11.637 5.777 18.273 7.788 5.796 1.778 12.212 3.178 19.257 4.198 3.88.565 8.165.56 12.395.069.284-.648.537-1.304.739-1.97.896-2.972 1.249-5.465 1.102-8.565-.069-1.479-.142-2.696-.656-3.858-.202-.455-.469-.9-.832-1.355-1.345-1.676-2.81-3.201-4.363-4.689-1.561-1.497-3.109-2.875-4.615-4.124-3.086-2.567-6.034-4.606-8.689-6.144-5.006-2.894-10.273-5.002-15.927-6.067-2.861-.542-5.667-.799-8.431-.799-1.599-.028-3.169.037-4.726.193-2.296.261-4.698.794-7.238 1.653-.684.197-1.373.436-2.08.721-1.993.758-4.85 2.062-8.597 4.046-3.766 1.993-7.555 4.106-11.256 6.292-2.425 1.442-4.533 2.792-6.315 4.023-2.2504 1.57-4.0048 2.962-5.309 4.156-.1378.124-.2756.243-.4042.363-.4868.454-.946.918-1.3869 1.377-2.6269 2.806-4.3353 5.668-5.3227 8.565-.5786 1.778-.9139 3.619-1.0287 5.53-.0918 1.309-.0735 2.654.0643 4.05.0827 1.034.2296 2.062.4409 3.077.1653.854.3903 1.704.6475 2.554.6889-2.48 1.8095-4.859 3.2239-7.155 5.8509-9.323 15.5919-16.777 29.2359-22.352z" fill="#68848e"/><path d="m182.449 218.717c-4.234.492-8.515.496-12.395-.068-7.045-1.02-13.465-2.421-19.257-4.198-6.636-2.012-12.725-4.606-18.273-7.789-4.363-2.494-8.299-5.304-11.803-8.418-13.639 5.575-23.3845 13.029-29.2354 22.352-1.419 2.296-2.535 4.675-3.2239 7.155.0597.202.1148.409.1791.611.0046.036.0092.073.0138.11.3628 1.125.8037 2.264 1.3318 3.407 1.4191 3.059 3.3939 6.04 6.0391 8.878 1.3456 1.451 2.8336 2.838 4.4775 4.151 1.369 1.093 2.852 2.14 4.446 3.132 4 2.517 8.174 4.317 12.372 5.511 4.634 1.318 8.992 1.824 13.157 1.695 4.533-.142 9.084-1.043 13.851-2.866 3.61-1.382 7.771-3.504 12.45-6.581.795-.514 1.571-1.042 2.324-1.561 2.494-1.745 4.795-3.504 6.88-5.263.009 0 .013 0 .023-.005 1.589-1.345 3.118-2.742 4.574-4.165 3.127-3.105 5.915-6.402 8.335-9.801-.032-.009-.069-.027-.101-.036.037.009.074.018.11.027 1.355-1.933 2.751-4.055 3.725-6.278z" fill="#86a0aa"/><path d="m150.793 214.453c5.796 1.778 12.211 3.178 19.256 4.198 2.448.353 5.057.482 7.711.404.767-1.19 1.506-2.393 2.177-3.624 2.622-4.817 4.413-9.736 5.667-14.787-.055-.083-.115-.175-.174-.271-1.066-1.612-2.71-3.559-5.071-5.796-1.556-1.479-3.095-2.834-4.587-4.055-3.054-2.512-5.943-4.469-8.533-5.92-3.178-1.814-6.329-3.146-9.392-4.078-.716-.207-5.401 5.456-6.177 6.172-1.961 1.911-3.926 3.835-5.975 5.654-1.759 1.557-3.315 3.412-5.171 4.923-1.924 1.566-3.972 2.976-5.887 4.56-1.429 1.18-2.861 2.361-4.294 3.536.716.441 1.437.878 2.177 1.3 5.547 3.178 11.637 5.777 18.273 7.789z" fill="#abc7d1"/><path d="m170.05 218.656c-7.045-1.019-13.465-2.42-19.256-4.197-6.637-2.012-12.726-4.607-18.274-7.789-.739-.423-1.46-.859-2.177-1.3-2.011 1.658-4.027 3.311-6.034 4.974-4.046 3.338-6.549 5.41-7.514 6.374-2.14 2.099-3.55 4.726-4.22 7.881-.661 3.155.124 6.158 2.388 9.056 2.255 2.898 5.139 5.304 8.602 7.22 3.449 1.919 7.256 3.168 11.389 3.802 4.12.615 9.401-.34 15.918-3.366 6.512-3.05 11.853-6.425 15.926-9.842 3.964-3.32 7.344-7.063 10.104-11.072.298-.437.574-.882.863-1.323-2.654.074-5.263-.05-7.711-.404z" fill="#bed7e0"/><path d="m140.326 196.22-.006.005z" fill="#86a0aa"/><path d="m100.046 284.461c-6.5293.22-12.3464.791-17.4511 1.716-2.7956.5-4.8903 1.097-6.2881 1.794-.9268.451-1.6314.97-2.1101 1.561-.3868.499-.5936 1.012-.6127 1.532 0 .109.0306.238.0842.38.0613.829.7085 1.661 1.9416 2.493 1.976 1.39 4.7142 2.487 8.2182 3.29 2.6998.587 6.0928 1.032 10.1712 1.329 2.7113.177 5.6409.297 8.7968.361 3.274.074 7.873.097 13.801.071 5.94-.026 11.439-.174 16.498-.448 4.978-.316 8.498-.555 10.562-.716 2.01-.181 4.312-.471 6.912-.868 2.363-.406 4.182-.864 5.465-1.374 1.803-.767 2.807-1.7 3.006-2.796.011-.055.019-.149.015-.284.008-.542-.26-1.087-.808-1.638-.505-.649-1.237-1.21-2.186-1.678-1.414-.696-3.593-1.332-6.53-1.906-4.622-.87-9.823-1.516-15.597-1.935-4.251-.342-9.624-.632-16.119-.867-.816-.004-1.677-.004-2.581.003-6.035-.152-11.098-.161-15.184-.029z" fill="#000" fill-opacity=".15"/><path d="m140.353 277.98c.362.285.845.492 1.451.616 1.662.358 7.513.114 17.557-.731 2.544-.211 5.084-.652 7.614-1.327 2.912-.771 4.726-1.584 5.433-2.448.611-.739.987-1.488 1.134-2.236-1.928-.331-4.059-.469-6.392-.413-1.814.036-4.607.261-8.368.679-3.701.381-6.585.804-8.661 1.272-3.146.708-5.833 1.741-8.06 3.096-.758.441-1.327.941-1.708 1.497z" fill="#68848e"/><path d="m173.259 266.649s-.032 0-.046-.004c0 0 .032 0 .046.004z" fill="#ffd154"/><path d="m143.43 255.133c-.758-2.613-1.989-4.592-3.693-5.933-1.373-1.029-3.035-1.649-4.987-1.865-1.695-.188-3.509-.06-5.451.381-2.439.565-5.084 2.099-7.371 3.298.262.835.546 1.722.868 2.094 1.038 1.208 2.14 1.593 3.297 1.152 3.399-1.331 5.773-2.029 7.123-2.094 1.777-.092 4.441.336 5.483 2.173 1.144 2.011.584 5.318.478 8.583-.147 4.615-.211 5.722-.188 7.885.018 1.989.105 4.087.606 6.012.124.473.377.859.758 1.162.381-.556.95-1.057 1.708-1.498.473-.289.969-.555 1.484-.817-.115-2.457.032-6.278-.042-9.731-.06-2.972.482-8.813-.078-10.802z" fill="#68848e"/><path d="m173.612 270.986c-.207-.919-.299-1.479-.285-1.686.161-2.255-.377-5.005-1.543-6.943-.841-1.397-2.002-2.508-3.49-3.33-2.572-1.419-6.324-.817-9.052-.271-.427-1.134-.161-2.342-.207-3.596-.202-5.47.574-8.349-.836-13.621-.61-2.283-2.388-4.634-3.954-6.402-1.58-1.782-3.614-2.981-5.864-3.72-3.325-1.098-7.367-1.125-12.115-.078-4.946 1.093-9.511 3.114-13.69 6.057-1.195.836-1.943 2.237-2.246 4.203-.271 1.749-.166 3.623.317 5.625.216.877.482 1.667.799 2.365.151.349.312.878.482 1.42 2.287-1.204 4.932-2.738 7.371-3.298 1.943-.441 3.761-.569 5.451-.381 1.947.216 3.61.836 4.988 1.865 1.703 1.341 2.934 3.32 3.692 5.933.56 1.989.018 7.83.078 10.801.074 3.454-.073 7.275.041 9.732 1.906-.96 4.097-1.722 6.572-2.283 2.071-.463 4.96-.89 8.662-1.267 3.761-.418 6.553-.643 8.367-.68 2.333-.055 4.464.083 6.393.414.06-.29.082-.579.069-.868z" fill="#8eaab2"/><path d="m264.261 147.79c-.932-.632-1.964-1.04-3.092-1.215-1.178-.198-2.31-.11-3.397.276-.977.36-1.877.944-2.714 1.764-.782.781-1.405 1.668-1.878 2.673-.623 1.316-1.018 2.826-1.187 4.533.096 4.349-.323 9.176-1.241 14.482-1.273 7.333-1.928 12.761-1.969 16.28-.027 1.133.041 2.05.205 2.756.232.97.623 1.734 1.191 2.282.628.58 1.455.935 2.487 1.062.919.128 1.901.075 2.947-.166 3.091-.716 5.61-2.515 7.575-5.411 1.723-2.497 2.464-4.994 2.219-7.504 2.355-1.699 3.937-3.564 4.765-5.609.741-1.768.968-3.822.677-6.161-.177-1.786-.595-3.362-1.264-4.739-.459-.931-1.009-1.73-1.65-2.397.227-.316.418-.671.573-1.062.313-.71.481-1.474.522-2.286.05-.899-.068-1.843-.35-2.848-.136-.483-.318-.992-.541-1.514-.968-2.317-2.26-4.046-3.865-5.191l-.013-.009z" fill="#86a0aa"/><path d="m186.343 80.7502c.959 2.9163 2.08 5.9519 3.366 9.1069 2.48 6.3009 5.488 13.0519 9.029 20.2439 4.317 8.771 14.916 11.738 24.009 11.274 9.456-.482 15.89-8.441 18.425-17.717 5.635-20.6161.859-40.6026-6.627-59.8955-.932-2.3652-1.873-4.5971-2.81-6.6821-5.103-11.3159-10.526-18.8016-16.271-22.4664-6.614-4.1608-14.393-5.50637-23.344-4.0414-3.587.5557-6.599 1.4604-9.038 2.7234-3.605 1.8002-6.062 4.3077-7.376 7.5362-2.254 5.4743-1.079 17.4055 3.523 35.7846 1.75 7.2423 4.119 15.2837 7.118 24.1243zm37.598-1.7818s0 .0413.005.0643c0-.023 0-.0414-.005-.0643z" fill="#68848e"/><path d="m123.682 38.5274c-3.651-1.9518-6.953-3.3387-9.85-4.2343-3.808-1.1848-7.491-1.7267-11.018-1.6762-3.7518.0138-7.2329.6797-10.4155 1.961-3.6832 1.4879-5.9978 3.4765-6.953 5.9748-.5649 1.4788 2.0115 4.4822 7.3801 9.4054 4.7716 4.3996 11.2884 9.9473 19.0914 17.1161 7.214 6.6637 14.383 13.7086 21.396 21.1805 7.017 7.472 12.51 13.8693 16.923 18.7833-5.428 1.208-10.25-.344-14.677-4.496-5.521-5.1483-10.719-9.8923-15.463-14.3194-2.416-2.1952-4.68-4.317-6.797-6.3744-6.489-6.2044-12.437-11.6695-17.6353-16.5834-13.3916-12.3354-21.58-19.9451-22.5674-25.0933-.6291-2.9989.2251-6.0988 2.5948-9.3641 1.5798-2.2365 3.9128-4.5511 7.0081-6.953 7.6602-6.0345 15.8946-9.5018 24.5238-10.1677 7.504-.5281 16.854 1.9288 27.293 8.2113 1.92 1.1619 3.895 2.457 5.901 3.8991 13.681 9.9381 23.744 21.8004 30.582 34.9395 7.743 10.9714 7.132 21.8786-.482 31.6789-2.269-5.1344-4.643-9.7774-7.064-13.9703-10.787-18.7006-24.533-31.7202-39.775-39.9224 0 0 .004.0046.009.0092z" fill="#86a0aa"/><path d="m113.832 34.2934c2.898.8956 6.195 2.2871 9.851 4.2343 15.238 8.2022 28.983 21.2218 39.775 39.927 2.416 4.1837 4.79 8.8313 7.063 13.9703-.142.1837-.294.3766-.441.5557-1.327 1.6487-2.851 3.279-4.569 4.8818-5.566 5.0975-10.641 8.1425-15.275 9.1715-4.413-4.914-9.906-11.307-16.923-18.7836-7.013-7.4581-14.177-14.5122-21.396-21.1805-7.798-7.1642-14.3196-12.7165-19.0911-17.1161-5.3732-4.9186-7.9496-7.9266-7.3802-9.4054.9553-2.4937 3.2791-4.4914 6.953-5.9748 3.1734-1.2813 6.6545-1.9472 10.4153-1.961 3.532-.0505 7.215.4914 11.018 1.6763z" fill="#68848e"/><path d="m249.227 107.07c-12.377-20.8037-34.439-32.1058-66.173-33.906-31.78-1.8003-55.133 5.9381-70.067 23.2379-14.3932 16.6611-21.4427 37.0381-21.1304 61.1211.2802 22.866 8.3404 37.084 24.1614 42.655 15.655 5.525 34.958 8.969 57.92 10.342 22.953 1.373 42.053.156 57.314-3.637 15.422-3.825 25.181-16.175 29.291-37.052 4.321-21.906.551-42.82-11.311-62.752z" fill="#86a0aa"/><path d="m91.3977 151.934c-1.1573-.097-2.2733.138-3.3525.689-1.0241.519-1.8875 1.249-2.5994 2.19-1.1756 1.704-1.8507 3.936-2.0482 6.705-.0643.593-.0827 1.167-.0551 1.718.0229 1.189.2066 2.269.5511 3.247.3123.863.7256 1.635 1.2445 2.314.2802.372.5741.689.8818.96-.3904.9-.6659 1.915-.8175 3.045-.2066 1.681-.1148 3.499.2802 5.465.4776 2.609 1.3502 4.758 2.6315 6.452 1.4466 1.952 3.5637 3.509 6.3651 4.657.5787 2.765 2.0942 5.249 4.5374 7.445 2.8244 2.539 5.8414 3.747 9.0424 3.605 1.079-.042 2.039-.253 2.88-.657.95-.436 1.639-1.061 2.062-1.869.372-.758.505-1.686.395-2.792-.065-.813-.285-1.824-.652-3.018-1.158-3.788-3.523-9.446-7.096-16.978-2.576-5.447-4.519-10.517-5.8277-15.215-.6889-1.796-1.5523-3.311-2.5672-4.551-.7807-.937-1.6671-1.713-2.6636-2.324-1.0609-.638-2.1218-1.01-3.1872-1.116" fill="#86a0aa"/><path d="m214.798 117.444c3.233-5.125 7.719-8.22 13.446-9.286 5.732-1.065 11.031.212 15.913 3.826 4.864 3.642 7.872 8.551 9.02 14.733 1.148 6.181.11 11.844-3.123 16.978-3.251 5.153-7.738 8.262-13.47 9.327-5.731 1.066-11.022-.225-15.894-3.866-4.882-3.615-7.899-8.524-9.052-14.715-1.153-6.19-.097-11.844 3.155-16.997z" fill="#fff"/><path d="m173.171 115.29c-4.831-4.956-10.724-7.477-17.658-7.573-6.939-.097-12.9 2.268-17.892 7.086-4.97 4.845-7.5 10.719-7.592 17.621-.096 6.907 2.273 12.85 7.109 17.81 4.859 4.978 10.756 7.518 17.691 7.614 6.939.097 12.886-2.282 17.86-7.127 4.992-4.818 7.536-10.692 7.632-17.608.097-6.916-2.287-12.845-7.146-17.823z" fill="#fff"/><path d="m204.308 203.553c-.294 0-.583-.009-.872-.018-4.349-.129-8.988-.414-13.415-.822-7.936-.74-14.526-2.264-19.596-4.542-5.396-2.416-8.85-4.946-10.549-7.734-1.653-2.728-2.507-5.148-2.618-7.417-.096-1.993.17-4.45.822-7.509.777-3.536 2.311-6.663 4.565-9.308 2.407-2.816 5.378-4.772 8.836-5.81 2.581-.767 5.346-1.143 8.235-1.121.39 0 .78.014 1.175.033 3.38.17 7.422 1.29 12.382 3.435 2.351 1.051 4.395 1.952 6.131 2.686 1.478.625 3.1 1.153 4.808 1.571 1.626.409 3.504.648 5.607.707.345.009.708.014 1.07.019 1.952.013 4.065-.069 6.278-.253.294-.023.602-.05.923-.083 1.351-.124 3.027-.275 4.708-.261 4.17.032 7.026 1.102 8.735 3.274 3.205 4.083 2.222 11.426.776 15.366-4.124 11.238-14.595 17.888-28.005 17.787z" fill="#bed7e0"/><path d="m172.321 125.792c-2.007-2.066-4.446-3.122-7.316-3.164-2.87-.041-5.336.946-7.398 2.962-2.067 2.003-3.114 4.423-3.151 7.256-.037 2.834.942 5.355 2.953 7.408 2.007 2.058 4.446 3.105 7.316 3.146s5.336-.941 7.398-2.944c2.062-2.002 3.114-4.441 3.151-7.325.037-2.843-.942-5.29-2.953-7.343z" fill="#1c1c1c"/><path d="m243.776 122.652c-2.034-1.58-4.234-2.154-6.604-1.713s-4.216 1.763-5.548 3.972c-1.331 2.2-1.749 4.616-1.258 7.252s1.759 4.808 3.793 6.374c2.035 1.575 4.235 2.14 6.6 1.699 2.37-.441 4.22-1.759 5.548-3.958 1.331-2.2 1.745-4.634 1.249-7.312-.492-2.64-1.75-4.744-3.78-6.314z" fill="#1c1c1c"/><path d="m165.318 163.663c-1.778 3.049-2.857 5.759-3.233 8.133-.473 2.728-.698 5.424-.68 8.087-.028.799.161 1.833.565 3.109.381 1.273.946 2.816 1.676 4.625.721 1.8 2.802 3.656 6.255 5.575 3.449 1.92 7.752 3.146 12.919 3.674 5.152.515 11.352.62 18.604.313 7.247-.326 12.11-1.282 17.098-2.903 4.982-1.621 7.159-4.069 9.056-7.403.997-1.754 2.379-4.06 2.87-6.898.551-3.063.698-6.213.437-9.442-.253-3.242-1.553-9.212-4.372-12.643-2.976-3.61-5.612-6.273-13.42-7.633-.615-.904-1.226-1.873-1.832-2.92-.593-1.029-1.309-1.897-2.149-2.609-.832-.712-1.902-1.171-3.22-1.373-1.309-.207-2.875-.377-4.712-.501s-3.729.005-5.676.386c-1.933.395-3.274.868-4.005 1.41-.725.556-1.465 1.405-2.222 2.535-.753 1.143-1.36 2.494-1.819 4.032-2.604.717-8.34 1.249-10.866 2.742-5.74 3.394-9.492 6.618-11.256 9.681l-.018.027z" fill="#bed7e0"/><path d="m180.483 157.458c-2.65 2.209-4.427 4.427-5.337 6.645-.9 2.223-1.488 3.899-1.75 5.029-.261 1.13-.312 1.947-.146 2.448 2.172 3.224 5.423 5.355 9.768 6.406 4.33 1.038 7.807.91 10.438-.376 2.627-1.3 4.285-2.218 4.979-2.746.679-.529 1.331-.777 1.942-.721.602.036 1.144.266 1.644.698.506.427 1.7 1.387 3.583 2.893 1.873 1.492 4.62 2.076 8.266 1.759 3.637-.331 6.475-1.194 8.491-2.609 2.026-1.414 3.312-2.631 3.863-3.655.537-1.034.661-2.32.372-3.849-.276-1.52-.763-3.646-1.451-6.383-.689-2.724-2.738-5.291-6.164-7.702-3.421-2.397-8.353-3.711-14.806-3.927-6.438-.202-11.339.207-14.705 1.231-3.352 1.034-6.351 2.659-9.001 4.868h.005z" fill="#bed7e0"/><path d="m203.113 171.97.776-11.188c-1.442-.188-2.884-.349-4.335-.445l-.464 10.209s-1.396 1.442-1.401 1.451c1.566-.216 3.858-.206 5.424-.023z" fill="#3e484b"/><path d="m211.996 155.076c.546-1.323.583-2.375.11-3.151-.487-.822-1.244-.689-2.278.4-1.795 1.892-3.136 3.251-4.018 4.069-1.447 1.377-2.811 2.48-4.106 3.311-1.63-.937-3.251-2.048-4.886-3.339-1.084-.85-2.425-2.002-4.037-3.458-1.18-1.066-1.888-1.148-2.126-.253-.23.827-.005 1.993.656 3.504 2.329 3.293 5.346 6.017 9.038 8.175h.074c.771.588 1.667.592 2.686 0 3.725-2.815 6.696-5.906 8.882-9.263h.005z" fill="#3e484b"/><path d="m224.569 172.499c-2.273-2.554-7.146-1.805-10.223-1.525-2.521.23-4.877.308-7.063.248-2.186-.064-4.17-.321-5.952-.776-1.782-.441-3.481-.997-5.098-1.672-1.603-.675-3.577-1.524-5.919-2.562-4.331-1.846-7.78-2.834-10.352-2.962-2.563-.111-4.873.174-6.916.849-2.03.68-3.647 1.92-4.841 3.72-.101.152-.193.312-.289.469 12.211 5.345 22.82 14.549 30.347 27.706 2.985.234 6.021.4 8.965.487 8.551.248 17.12-2.995 19.196-13.199.657-3.219.289-8.386-1.851-10.792z" fill="#3e484b"/><path d="m167.912 168.297c-1.015 1.708-1.599 3.697-1.746 5.975-.147 2.493-.073 4.5.216 6.011.29 1.511 1.171 3.298 2.655 5.364 1.492 2.067 4.51 4.101 9.047 6.099 4.537 2.007 10.255 3.343 17.162 4 .992.097 1.998.179 3.013.262-7.527-13.158-18.136-22.361-30.347-27.707z" fill="#3e484b"/><path d="m123.591 109.747 1.874 14.797 51.913-17.676-7.311-9.6121z" fill="#86a0aa"/><path d="m228.386 101.077-6.228 4.317 35.041 24.368-4.473-13.47z" fill="#86a0aa"/><path d="m51.6763 59.2078c-3.899 1.2479-6.8152 3.4594-8.7441 6.626-1.6487 2.5298-2.2411 5.0257-1.7818 7.5173.4546 2.6954 2.0206 4.9451 4.7027 6.749 2.4202 1.6385 5.2492 2.653 8.4914 3.052 2.3652.2589 5.3549.1655 8.9737-.2844 5.5983-.6877 8.5558-1.0315 8.8589-1.0272 4.1884-.3439 8.4043-.1953 12.6477.4669-.0367-.1613-.0827-.3269-.1194-.4882-3.6143-8.0861-7.6832-13.9862-12.1976-17.7003-2.8336-2.4534-6.0805-4.1555-9.7498-5.0851-3.9725-1.057-7.6695-1.0018-11.0817.1825z" fill="#31b4e2"/><path d="m59.7633 98.2764c-2.2962 1.7866-3.6464 3.9856-4.0689 6.6006-.4088 2.11-.1149 3.943.9047 5.522 1.0654 1.711 2.7646 2.861 5.0884 3.443 2.108.53 4.3078.543 6.6224.034 1.6762-.391 3.674-1.18 6.0069-2.348 3.6097-1.812 5.5156-2.75 5.7269-2.822 2.7371-1.244 5.6487-2.161 8.7119-2.725-.0689-.107-.147-.2-.2159-.302-4.7348-4.622-9.1482-7.6488-13.263-9.0835-2.6177-.9932-5.3043-1.3583-8.0552-1.1121-2.9943.2335-5.4926 1.1546-7.472 2.7803l.0092.0085z" fill="#31b4e2"/><path d="m117.786 210.423 7.775-12.51c-18.802-20.661-37.6358-21.479-56.5062-2.456-5.8463 4.913-3.1459 9.883 8.1057 14.916 15.642-17.869 29.1855-17.851 40.6205.05z" fill="#68848e"/><path d="m119.36 199.48c-1.777 1.304-2.884 2.953-3.325 4.955-.427 2.002-.059 3.761 1.103 5.272 1.171 1.511 2.783 2.315 4.831 2.425 2.016.106 3.894-.501 5.63-1.823 1.732-1.305 2.802-2.926 3.21-4.868.428-1.938.083-3.656-1.037-5.158-1.13-1.501-2.696-2.337-4.699-2.507-2.034-.175-3.94.395-5.713 1.708z" fill="#68848e"/><path d="m74.7073 208.949c-11.6281-7.242-14.4847-11.761-8.565-13.562 20.2528-24.197 42.2557-22.177 65.9987 6.072l-10.838 5.777c-15.156-19.1-30.6874-18.531-46.5957 1.713z" fill="#8eaab2"/><path d="m120.313 204.613c-.207-1.607.192-3.049 1.203-4.33 1.024-1.282 2.36-2.021 4.018-2.228 1.654-.202 3.137.193 4.441 1.194s2.062 2.31 2.269 3.927c.206 1.621-.202 3.068-1.226 4.349-1.011 1.281-2.343 2.016-3.996 2.209-1.653.202-3.136-.193-4.441-1.194-1.304-1.001-2.062-2.31-2.268-3.927z" fill="#8eaab2"/><path d="m59.9849 211.168c-.7394-2.319-.5557-4.538.5557-6.65 1.1022-2.067 2.7922-3.454 5.0655-4.161 2.287-.703 4.4731-.528 6.5626.533 2.1218 1.074 3.5638 2.737 4.3262 4.987.7853 2.26.6659 4.441-.3629 6.549-1.047 2.149-2.7141 3.614-5.0012 4.4-2.2962.753-4.5511.569-6.7555-.551-2.1539-1.093-3.6143-2.793-4.3904-5.103z" fill="#68848e"/><path d="m70.4921 205.727c.8726-1.723 2.2411-2.866 4.1103-3.445 1.8323-.583 3.6234-.427 5.3731.459 1.7636.896 2.9668 2.26 3.6143 4.097.6751 1.864.597 3.665-.2342 5.41-.8266 1.768-2.1768 2.962-4.0368 3.582-1.8461.615-3.674.464-5.4788-.455-1.7957-.909-3.0264-2.31-3.6878-4.193-.6337-1.887-.5235-3.706.3399-5.455z" fill="#68848e"/><path d="m59.8055 198.042c1.8324-.583 3.6234-.427 5.3732.459 1.7635.896 2.9667 2.26 3.6142 4.097.6751 1.864.5971 3.664-.2342 5.41-.8266 1.768-2.1768 2.962-4.0368 3.582-1.8461.615-3.6739.464-5.4788-.455-1.7956-.909-3.0264-2.31-3.6877-4.193-.6338-1.883-.5236-3.706.3398-5.456.8726-1.722 2.2411-2.865 4.1103-3.444z" fill="#8eaab2"/><path d="m60.9588 205.34c-.5649-2.64-.1791-5.235 1.1573-7.793 1.3088-2.503 3.178-4.262 5.6074-5.272 2.4248-1.029 4.6751-1.015 6.7509.036 2.0988 1.066 3.4444 2.875 4.0368 5.433.62 2.558.3077 5.107-.9369 7.642-1.2813 2.586-3.1412 4.436-5.5706 5.557-2.4524 1.084-4.7716 1.07-6.9576-.037-2.1401-1.084-3.5087-2.939-4.0965-5.561z" fill="#8eaab2"/><path d="m59.788 211.067c-.5052-2.2-.2021-4.358.8955-6.48 1.1022-2.067 2.6637-3.518 4.6935-4.349 2.0483-.822 3.9496-.79 5.7039.096 1.7727.9 2.9254 2.411 3.449 4.542.5373 2.136.2893 4.253-.7348 6.356-1.0471 2.15-2.5948 3.674-4.6476 4.579-2.0621.873-4.0139.84-5.8646-.096-1.8049-.914-2.9714-2.467-3.4949-4.648z" fill="#8eaab2"/><path d="m68.8112 204.853c.7118-1.406 1.8829-2.324 3.5132-2.747 1.5982-.413 3.178-.225 4.7487.57 1.5889.803 2.7003 1.979 3.3341 3.522.6521 1.58.6429 3.086-.023 4.515-.6797 1.451-1.8324 2.402-3.4489 2.861-1.6166.459-3.2377.275-4.8635-.547-1.6119-.817-2.7371-2.025-3.38-3.632-.62-1.594-.5787-3.109.124-4.547z" fill="#8eaab2"/><path d="m252.744 110.68c1.213-.547 1.599-1.874.51-4.547-2.039-5.01-5.304-13.4191-10.994-15.2148-6.177-1.9518-16.487-3.8668-22.921-4.4133-22.958-1.9564-43.174-1.3364-66.003 1.4833-10.829 1.3364-20.979 3.2974-32.244 6.999-6.204 2.039-14.177 3.5775-18.889 8.4868-3.7749 3.931-5.667 9.727-6.4201 14.93-.0827.556-.4914 7.536 1.9472 6.048 15.3439-9.377 35.2659-12.473 52.7489-15.081 22.614-3.376 45.773-4.854 68.616-3.422 6.315.395 12.625 1.038 18.862 2.136 3.375.592 6.585 1.979 9.965 2.595 1.971.358 3.734.5 4.827.004z" fill="#25a384"/></svg>